Sammen med sin mor, flytter tvillinene Emma og Tom inn i "Elgens Øye" - et gammelt spøkelseshus, som har stått tomt i årevis. Snart oppdager de at huset gjemmer på en verdifull hemmelighet: en kostbar kjempediamant, som to farlige forbrytere vil gjøre alt for å få tak i. I deres jakt på å finne diamanten før forbryterne, får tvillingene plutselig hjelp fra et vennlig spøkelse. Fakiren fra Bilbao, som har vært innesperret i en kulepenn i et halvt århundre! 

Skuespillere Peter Gantzler, Fares Fares, Ole Thestrup, Sidse Babett Knudsen, Julie Zangenberg, Aksel Leth 
Regissør Peter Flinth 
Originaltittel Fakiren fra Bilbao 
Varighet DVD: 1 tim 24 min  
Aldersgrense  
Filmsamlinger Basert på bok 
Sjangre Barn og familie, Eventyr, Internasjonalt 
Språk DVD: Dansk 
Undertekster DVD: Svensk, Dansk, Norsk, Finsk, Engelsk 
Releasedato Produksjonsår: 2004

 
General
Complete name                    : D:\Downloads\AVI\FAKIREN_FRA_BILBAO\Fakiren bra Bilbao.DVDrip.Norsk tekst.AC3-5.1.Ripp Robban.avi
Format                           : AVI
Format/Info                      : Audio Video Interleave
Format profile                   : OpenDML
File size                        : 1.13 GiB
Duration                         : 1h 24mn
Overall bit rate                 : 1 919 Kbps
Movie name                       : Fakiren bra Bilbao.DVDrip.Norsk tekst.AC3-5.1.Ripp Robban
Writing application              : Lavf52.78.4
Original source form/Name        : FAKIREN_FRA_BILBAO

Video
ID                               : 0
Format                           : MPEG-4 Visual
Format profile                   : Advanced Simple@L5
Format settings, BVOP            : 2
Format settings, QPel            : No
Format settings, GMC             : No warppoints
Format settings, Matrix          : Default (H.263)
Muxing mode                      : Packed bitstream
Codec ID                         : DX50
Codec ID/Hint                    : DivX 5
Duration                         : 1h 24mn
Bit rate                         : 1 522 Kbps
Width                            : 720 pixels
Height                           : 308 pixels
Display aspect ratio             : 2.35:1
Frame rate                       : 25.000 fps
Color space                      : YUV
Chroma subsampling               : 4:2:0
Bit depth                        : 8 bits
Scan type                        : Progressive
Compression mode                 : Lossy
Bits/(Pixel*Frame)               : 0.274
Stream size                      : 921 MiB (79%)
Writing library                  : XviD 1.2.1 (UTC 2008-12-04)

Audio
ID                               : 1
Format                           : AC-3
Format/Info                      : Audio Coding 3
Mode extension                   : CM (complete main)
Codec ID                         : 2000
Duration                         : 1h 24mn
Bit rate mode                    : Constant
Bit rate                         : 384 Kbps
Channel(s)                       : 2 channels
Channel positions                : Front: L R
Sampling rate                    : 48.0 KHz
Bit depth                        : 16 bits
Compression mode                 : Lossy
Stream size                      : 26.6 MiB (2%)
Alignment                        : Aligned on interleaves
Interleave, duration             : 280 ms (7.00 video frames)
Interleave, preload duration     : 32 ms

